<svg width="33" height="36" viewBox="0 0 33 36" fill="none" xmlns="http://www.w3.org/2000/svg">
<path d="M13.049 35.0719C14.8433 35.0719 16.3113 33.6039 16.3113 31.8096H9.78677C9.78677 33.6039 11.2548 35.0719 13.049 35.0719ZM22.8358 25.2851V17.1295C22.8358 12.1219 20.1771 7.92992 15.4957 6.82075V5.71159C15.4957 4.35775 14.4029 3.26489 13.049 3.26489C11.6952 3.26489 10.6023 4.35775 10.6023 5.71159V6.82075C5.93731 7.92992 3.26226 12.1056 3.26226 17.1295V25.2851L0 28.5474V30.1785H26.0981V28.5474L22.8358 25.2851ZM19.5735 26.9163H6.52451V17.1295C6.52451 13.0843 8.98752 9.78941 13.049 9.78941C17.1105 9.78941 19.5735 13.0843 19.5735 17.1295V26.9163Z" fill="black" fill-opacity="0.8"/>
<circle cx="22.633" cy="9.5842" r="8.5842" fill="#006AFE" stroke="white" stroke-width="2"/>
</svg>
